<svg width="351.21875px" height="122px" xmlns="http://www.w3.org/2000/svg" viewBox="74.390625 14 351.21875 122" style="background: rgba(0, 0, 0, 0); --darkreader-inline-bgimage: initial; --darkreader-inline-bgcolor:rgba(0, 0, 0, 0);" data-darkreader-inline-bgimage="" data-darkreader-inline-bgcolor="" preserveAspectRatio="xMidYMid"><defs><linearGradient id="editing-gradient-gradient" x1="0" x2="1" y1="0.5" y2="0.5" gradientUnits="objectBoundingBox"><stop offset="0" stop-color="#f0f" data-darkreader-inline-stopcolor="" style="--darkreader-inline-stopcolor:#cc00cc;"></stop><stop offset="1" stop-color="#0ff" data-darkreader-inline-stopcolor="" style="--darkreader-inline-stopcolor:#00cccc;"></stop></linearGradient></defs><g><g transform="translate(129.63645911216736, 104.76000022888184)"><path d="M5.63-26.75L5.63-26.75L5.63-26.75Q7.81-29.82 11.10-31.87L11.10-31.87L11.10-31.87Q14.40-33.92 18.43-33.92L18.43-33.92L18.43-33.92Q22.46-33.92 24.38-32.64L24.38-32.64L36.93-33.92L32.58-9.34L32.58-9.34Q30.34 3.20 25.60 8.13L25.60 8.13L25.60 8.13Q21.06 12.80 12.22 12.80L12.22 12.80L12.22 12.80Q5.50 12.80 1.66 10.69L1.66 10.69L1.66 10.69Q-2.18 8.58-2.18 5.06L-2.18 5.06L-2.18 5.06Q-2.18 2.43-0.19 0.93L-0.19 0.93L-0.19 0.93Q1.79-0.58 4.86-0.58L4.86-0.58L4.86-0.58Q7.55-0.58 9.60 0.64L9.60 0.64L9.60 0.64Q10.82 1.28 11.39 2.18L11.39 2.18L11.39 2.18Q9.92 3.46 9.92 5.57L9.92 5.57L9.92 5.57Q9.92 8.32 12.48 8.32L12.48 8.32L12.48 8.32Q16.77 8.32 19.20-1.79L19.20-1.79L19.20-1.79Q19.90-4.54 20.48-7.30L20.48-7.30L20.48-7.30Q17.60-3.78 11.07-3.78L11.07-3.78L11.07-3.78Q6.53-3.78 3.90-5.95L3.90-5.95L3.90-5.95Q1.28-8.13 1.28-13.25L1.28-13.25L1.28-13.25Q1.28-16.45 2.37-20.06L2.37-20.06L2.37-20.06Q3.46-23.68 5.63-26.75ZM13.95-13.06L13.95-13.06L13.95-13.06Q13.95-8.70 16.19-8.70L16.19-8.70L16.19-8.70Q17.73-8.70 19.20-10.37L19.20-10.37L19.20-10.37Q20.35-11.71 20.80-13.70L20.80-13.70L24.06-30.14L24.06-30.14Q23.74-30.21 23.42-30.34L23.42-30.34L23.42-30.34Q22.78-30.59 21.95-30.59L21.95-30.59L21.95-30.59Q18.05-30.59 15.74-24.19L15.74-24.19L15.74-24.19Q13.95-19.20 13.95-13.06ZM53.38 1.28L53.38 1.28L53.38 1.28Q39.30 1.28 39.30-11.97L39.30-11.97L39.30-11.97Q39.30-21.38 44.48-27.46L44.48-27.46L44.48-27.46Q49.98-33.92 59.52-33.92L59.52-33.92L59.52-33.92Q66.43-33.92 69.95-30.72L69.95-30.72L69.95-30.72Q73.47-27.52 73.47-20.80L73.47-20.80L73.47-20.80Q73.47-10.56 67.97-4.61L67.97-4.61L67.97-4.61Q62.59 1.28 53.38 1.28ZM55.04-26.56L55.04-26.56L55.04-26.56Q54.27-24.83 53.66-22.24L53.66-22.24L53.66-22.24Q53.06-19.65 52.29-15.55L52.29-15.55L52.29-15.55Q51.52-11.46 51.52-6.40L51.52-6.40L51.52-6.40Q51.52-4.74 52.06-3.65L52.06-3.65L52.06-3.65Q52.61-2.56 54.08-2.56L54.08-2.56L54.08-2.56Q55.55-2.56 56.48-3.26L56.48-3.26L56.48-3.26Q57.41-3.97 58.11-5.63L58.11-5.63L58.11-5.63Q59.39-8.58 60.42-14.05L60.42-14.05L60.42-14.05Q61.44-19.52 61.54-21.89L61.54-21.89L61.54-21.89Q61.63-24.26 61.63-26.02L61.63-26.02L61.63-26.02Q61.63-27.78 61.12-28.93L61.12-28.93L61.12-28.93Q60.61-30.08 59.17-30.08L59.17-30.08L59.17-30.08Q57.73-30.08 56.77-29.18L56.77-29.18L56.77-29.18Q55.81-28.29 55.04-26.56ZM80.03-1.92L80.03-1.92L80.03-1.92Q78.53-3.58 77.86-6.21L77.86-6.21L77.86-6.21Q77.18-8.83 77.18-13.12L77.18-13.12L77.18-13.12Q77.18-17.41 78.66-21.31L78.66-21.31L78.66-21.31Q80.13-25.22 82.82-28.03L82.82-28.03L82.82-28.03Q88.32-33.92 97.41-33.92L97.41-33.92L97.41-33.92Q100.67-33.92 103.04-32.83L103.04-32.83L113.98-33.92L109.25-8.96L109.25-8.96Q109.06-8.19 109.06-6.78L109.06-6.78L109.06-6.78Q109.06-5.38 109.92-4.48L109.92-4.48L109.92-4.48Q110.78-3.58 112.06-3.46L112.06-3.46L112.06-3.46Q111.42-1.28 109.09 0L109.09 0L109.09 0Q106.75 1.28 104.13 1.28L104.13 1.28L104.13 1.28Q101.50 1.28 99.74 0.29L99.74 0.29L99.74 0.29Q97.98-0.70 97.47-2.37L97.47-2.37L97.47-2.37Q96.45-0.77 94.27 0.26L94.27 0.26L94.27 0.26Q92.10 1.28 89.18 1.28L89.18 1.28L89.18 1.28Q86.27 1.28 83.90 0.51L83.90 0.51L83.90 0.51Q81.54-0.26 80.03-1.92ZM93.54-27.90L93.54-27.90L93.54-27.90Q92.80-26.75 92.16-24.80L92.16-24.80L92.16-24.80Q91.52-22.85 90.46-17.63L90.46-17.63L90.46-17.63Q89.41-12.42 89.41-8.70L89.41-8.70L89.41-8.70Q89.41-4.99 89.98-3.90L89.98-3.90L89.98-3.90Q90.56-2.82 91.58-2.82L91.58-2.82L91.58-2.82Q93.63-2.82 95.14-4.77L95.14-4.77L95.14-4.77Q96.64-6.72 97.22-10.18L97.22-10.18L100.61-28.93L100.61-28.93Q99.26-30.08 97.70-30.08L97.70-30.08L97.70-30.08Q96.13-30.08 95.20-29.57L95.20-29.57L95.20-29.57Q94.27-29.06 93.54-27.90ZM118.46-6.40L118.46-6.40L118.46-6.40Q118.46-8.13 119.36-12.48L119.36-12.48L122.75-29.76L118.98-29.76L119.23-31.68L119.23-31.68Q126.91-33.98 134.34-39.62L134.34-39.62L137.41-39.62L135.87-32.64L140.86-32.64L140.29-29.76L135.36-29.76L132.10-12.48L132.10-12.48Q131.26-8.51 131.26-7.17L131.26-7.17L131.26-7.17Q131.26-4.10 133.95-3.46L133.95-3.46L133.95-3.46Q133.31-1.28 131.01 0L131.01 0L131.01 0Q128.70 1.28 125.44 1.28L125.44 1.28L125.44 1.28Q122.18 1.28 120.32-0.77L120.32-0.77L120.32-0.77Q118.46-2.82 118.46-6.40ZM165.50-37.12L165.50-37.12L165.50-37.12Q166.40-38.66 166.40-40.32L166.40-40.32L166.40-40.32Q166.40-43.26 164.61-43.26L164.61-43.26L164.61-43.26Q161.86-43.26 160.70-37.63L160.70-37.63L159.74-32.64L165.57-32.64L165.18-29.76L159.17-29.76L153.41 0L140.48 1.28L146.62-29.76L142.08-29.76L142.66-32.64L147.14-32.64L148.48-37.70L148.48-37.70Q149.63-42.37 154.56-44.54L154.56-44.54L154.56-44.54Q158.14-46.08 164.16-46.08L164.16-46.08L164.16-46.08Q170.18-46.08 172.86-44.54L172.86-44.54L172.86-44.54Q175.55-43.01 175.55-40.96L175.55-40.96L175.55-40.96Q175.55-38.91 173.95-37.63L173.95-37.63L173.95-37.63Q172.35-36.35 170.56-36.35L170.56-36.35L170.56-36.35Q167.04-36.35 165.50-37.12ZM180.29-3.52L180.29-3.52L180.29-3.52Q178.30 1.28 171.97 1.28L171.97 1.28L171.97 1.28Q168.77 1.28 166.72-0.96L166.72-0.96L166.72-0.96Q165.06-2.82 165.06-4.93L165.06-4.93L165.06-4.93Q165.06-9.73 167.30-20.22L167.30-20.22L171.97-44.80L184.96-46.08L178.75-13.70L178.75-13.70Q177.66-8.96 177.66-7.30L177.66-7.30L177.66-7.30Q177.66-3.65 180.29-3.52ZM201.09-3.52L201.09-3.52L201.09-3.52Q199.10 1.28 192.77 1.28L192.77 1.28L192.77 1.28Q189.50 1.28 187.46-0.96L187.46-0.96L187.46-0.96Q185.73-2.94 185.73-4.93L185.73-4.93L185.73-4.93Q185.73-10.11 188.10-20.22L188.10-20.22L190.46-32.64L203.46-33.92L199.55-13.70L199.55-13.70Q198.46-8.96 198.46-7.30L198.46-7.30L198.46-7.30Q198.46-3.65 201.09-3.52ZM191.62-41.54L191.62-41.54L191.62-41.54Q191.62-44.03 193.70-45.38L193.70-45.38L193.70-45.38Q195.78-46.72 198.78-46.72L198.78-46.72L198.78-46.72Q201.79-46.72 203.62-45.38L203.62-45.38L203.62-45.38Q205.44-44.03 205.44-41.54L205.44-41.54L205.44-41.54Q205.44-39.04 203.42-37.76L203.42-37.76L203.42-37.76Q201.41-36.48 198.40-36.48L198.40-36.48L198.40-36.48Q195.39-36.48 193.50-37.76L193.50-37.76L193.50-37.76Q191.62-39.04 191.62-41.54ZM215.04 0.19L215.04 0.19L215.04 0.19Q212.99 1.28 210.18 1.28L210.18 1.28L210.18 1.28Q207.36 1.28 205.82-0.16L205.82-0.16L205.82-0.16Q204.29-1.60 204.29-4.38L204.29-4.38L204.29-4.38Q204.29-7.17 206.24-9.89L206.24-9.89L206.24-9.89Q208.19-12.61 211.10-14.14L211.10-14.14L211.10-14.14Q214.02-15.68 216.06-16.58L216.06-16.58L212.03-25.86L212.03-25.86Q210.94-28.22 208.90-28.22L208.90-28.22L208.38-28.16L208.19-28.16L208.19-28.16Q208.58-30.40 211.20-32.13L211.20-32.13L211.20-32.13Q213.82-33.92 216.83-33.92L216.83-33.92L216.83-33.92Q221.70-33.92 223.94-29.06L223.94-29.06L224.45-28.03L227.20-21.25L227.20-21.25Q228.93-22.02 229.66-23.46L229.66-23.46L229.66-23.46Q230.40-24.90 230.40-27.74L230.40-27.74L230.40-27.74Q230.40-30.59 228.86-32.38L228.86-32.38L228.86-32.38Q231.30-33.92 234.50-33.92L234.50-33.92L234.50-33.92Q240.26-33.92 240.26-28.35L240.26-28.35L240.26-28.35Q240.26-22.27 232.64-18.75L232.64-18.75L228.80-16.96L232.26-8.06L232.26-8.06Q233.28-5.38 235.14-4.22L235.14-4.22L235.14-4.22Q235.90-3.71 236.80-3.65L236.80-3.65L236.80-3.65Q234.88-0.51 230.72 0.90L230.72 0.90L230.72 0.90Q229.44 1.28 227.71 1.28L227.71 1.28L227.71 1.28Q225.98 1.28 224.00 0.10L224.00 0.10L224.00 0.10Q222.02-1.09 221.31-2.94L221.31-2.94L217.79-12.10L217.79-12.10Q214.21-10.50 214.21-4.67L214.21-4.67L214.21-4.67Q214.21-1.98 215.04 0.19Z" fill="url(#editing-gradient-gradient)"></path></g></g><style>text {
  font-size: 64px;
  font-family: Arial Black;
  dominant-baseline: central;
  text-anchor: middle;
}</style><style class="darkreader darkreader--sync" media="screen"></style></svg>